<svg width="228" height="87" viewBox="0 0 228 87" fill="none" xmlns="http://www.w3.org/2000/svg">
<path d="M172.76 53.5462C172.76 53.2291 173.016 52.972 173.332 52.972C173.648 52.972 173.905 53.2291 173.905 53.5462V57.9965H172.76V53.5462Z" fill="#900F37"/>
<path d="M149.433 54.6947C149.433 54.3775 149.177 54.1205 148.861 54.1205C148.545 54.1205 148.288 54.3775 148.288 54.6947V57.9965H149.433V54.6947Z" fill="#900F37"/>
<path d="M175.05 55.556C175.05 55.2389 175.306 54.9818 175.622 54.9818C175.938 54.9818 176.195 55.2389 176.195 55.556V57.9965H175.05V55.556Z" fill="#900F37"/>
<path d="M147.143 54.9818C147.143 54.6647 146.887 54.4076 146.571 54.4076C146.255 54.4076 145.998 54.6647 145.998 54.9818V57.9965H147.143V54.9818Z" fill="#900F37"/>
<path d="M186.212 55.556C186.212 55.2389 186.468 54.9818 186.785 54.9818C187.101 54.9818 187.357 55.2389 187.357 55.556V57.9965H186.212V55.556Z" fill="#900F37"/>
<path d="M135.838 55.6278C135.838 55.3503 135.613 55.1254 135.337 55.1254C135.06 55.1254 134.836 55.3503 134.836 55.6278V57.9965H135.838V55.6278Z" fill="#900F37"/>
<path d="M171.901 55.6996C171.901 55.3824 171.645 55.1254 171.329 55.1254C171.013 55.1254 170.756 55.3824 170.756 55.6996V57.9965H171.901V55.6996Z" fill="#900F37"/>
<path d="M177.196 52.2542C177.196 51.9371 177.453 51.68 177.769 51.68C178.085 51.68 178.341 51.9371 178.341 52.2542V57.9965H177.196V52.2542Z" fill="#900F37"/>
<path d="M144.997 52.2542C144.997 51.9371 144.74 51.68 144.424 51.68C144.108 51.68 143.852 51.9371 143.852 52.2542V57.9965H144.997V52.2542Z" fill="#900F37"/>
<path d="M184.066 54.9818C184.066 54.6647 184.322 54.4076 184.638 54.4076C184.954 54.4076 185.21 54.6647 185.21 54.9818V57.9965H184.066V54.9818Z" fill="#900F37"/>
<path d="M138.127 53.1156C138.127 52.7984 137.871 52.5413 137.555 52.5413C137.239 52.5413 136.983 52.7984 136.983 53.1156V57.9965H138.127V53.1156Z" fill="#900F37"/>
<path d="M116.804 56.5609C116.804 56.2438 117.061 55.9867 117.377 55.9867C117.693 55.9867 117.949 56.2438 117.949 56.5609V57.9965H116.804V56.5609Z" fill="#900F37"/>
<path d="M119.094 55.7714C119.094 55.4939 119.318 55.2689 119.595 55.2689C119.871 55.2689 120.096 55.4939 120.096 55.7714V57.9965H119.094V55.7714Z" fill="#900F37"/>
<path d="M121.241 54.1205C121.241 53.8033 121.497 53.5462 121.813 53.5462C122.129 53.5462 122.385 53.8033 122.385 54.1205V57.9965H121.241V54.1205Z" fill="#900F37"/>
<path d="M123.53 55.1254C123.53 54.8082 123.787 54.5511 124.103 54.5511C124.419 54.5511 124.675 54.8082 124.675 55.1254V57.9965H123.53V55.1254Z" fill="#900F37"/>
<path d="M125.82 55.8431C125.82 55.526 126.076 55.2689 126.393 55.2689C126.709 55.2689 126.965 55.526 126.965 55.8431V57.9965H125.82V55.8431Z" fill="#900F37"/>
<path d="M193.081 54.9818C193.081 54.6647 193.338 54.4076 193.654 54.4076C193.97 54.4076 194.226 54.6647 194.226 54.9818V57.9965H193.081V54.9818Z" fill="#900F37"/>
<path d="M129.112 54.6947C129.112 54.3775 128.855 54.1205 128.539 54.1205C128.223 54.1205 127.967 54.3775 127.967 54.6947V57.9965H129.112V54.6947Z" fill="#900F37"/>
<path d="M179.486 50.6751C179.486 50.358 179.742 50.1009 180.058 50.1009C180.375 50.1009 180.631 50.358 180.631 50.6751V57.9965H179.486V50.6751Z" fill="#900F37"/>
<path d="M142.707 54.1205C142.707 53.8033 142.451 53.5462 142.135 53.5462C141.818 53.5462 141.562 53.8033 141.562 54.1205V57.9965H142.707V54.1205Z" fill="#900F37"/>
<path d="M188.502 52.6849C188.502 52.3678 188.758 52.1107 189.074 52.1107C189.39 52.1107 189.647 52.3678 189.647 52.6849V57.9965H188.502V52.6849Z" fill="#900F37"/>
<path d="M133.691 52.6849C133.691 52.3678 133.435 52.1107 133.119 52.1107C132.803 52.1107 132.546 52.3678 132.546 52.6849V57.9965H133.691V52.6849Z" fill="#900F37"/>
<path d="M195.371 50.7469C195.371 50.4694 195.595 50.2445 195.872 50.2445C196.149 50.2445 196.373 50.4694 196.373 50.7469V57.9965H195.371V50.7469Z" fill="#900F37"/>
<path d="M220.129 50.8187C220.129 50.5015 220.385 50.2445 220.701 50.2445C221.018 50.2445 221.274 50.5015 221.274 50.8187V57.9965H220.129V50.8187Z" fill="#900F37"/>
<path d="M107.788 50.8187C107.788 50.5015 108.045 50.2445 108.361 50.2445C108.677 50.2445 108.933 50.5015 108.933 50.8187V57.9965H107.788V50.8187Z" fill="#900F37"/>
<path d="M161.884 52.1825C161.884 51.905 162.108 51.68 162.384 51.68C162.661 51.68 162.885 51.905 162.885 52.1825V57.9965H161.884V52.1825Z" fill="#900F37"/>
<path d="M197.518 49.8138C197.518 49.4967 197.774 49.2396 198.09 49.2396C198.406 49.2396 198.663 49.4967 198.663 49.8138V57.9965H197.518V49.8138Z" fill="#900F37"/>
<path d="M190.792 53.4027C190.792 53.0855 191.048 52.8285 191.364 52.8285C191.68 52.8285 191.937 53.0855 191.937 53.4027V57.9965H190.792V53.4027Z" fill="#900F37"/>
<path d="M131.401 53.5462C131.401 53.2291 131.145 52.972 130.829 52.972C130.513 52.972 130.256 53.2291 130.256 53.5462V57.9965H131.401V53.5462Z" fill="#900F37"/>
<path d="M199.808 54.1205C199.808 53.8033 200.064 53.5462 200.38 53.5462C200.696 53.5462 200.952 53.8033 200.952 54.1205V57.9965H199.808V54.1205Z" fill="#900F37"/>
<path d="M87.4669 54.1205C87.4669 53.8033 87.7231 53.5462 88.0393 53.5462C88.3554 53.5462 88.6117 53.8033 88.6117 54.1205V57.9965H87.4669V54.1205Z" fill="#900F37"/>
<path d="M202.097 55.556C202.097 55.2389 202.354 54.9818 202.67 54.9818C202.986 54.9818 203.242 55.2389 203.242 55.556V57.9965H202.097V55.556Z" fill="#900F37"/>
<path d="M89.7566 55.6996C89.7566 55.3824 90.0129 55.1254 90.329 55.1254C90.6452 55.1254 90.9015 55.3824 90.9015 55.6996V57.9965H89.7566V55.6996Z" fill="#900F37"/>
<path d="M204.387 54.0487C204.387 53.7712 204.611 53.5462 204.888 53.5462C205.165 53.5462 205.389 53.7712 205.389 54.0487V57.9965H204.387V54.0487Z" fill="#900F37"/>
<path d="M91.9032 54.1205C91.9032 53.8033 92.1595 53.5462 92.4757 53.5462C92.7918 53.5462 93.0481 53.8033 93.0481 54.1205V57.9965H91.9032V54.1205Z" fill="#900F37"/>
<path d="M206.534 52.6849C206.534 52.3678 206.79 52.1107 207.106 52.1107C207.422 52.1107 207.679 52.3678 207.679 52.6849V57.9965H206.534V52.6849Z" fill="#900F37"/>
<path d="M94.193 52.6849C94.193 52.3678 94.4493 52.1107 94.7654 52.1107C95.0816 52.1107 95.3379 52.3678 95.3379 52.6849V57.9965H94.193V52.6849Z" fill="#900F37"/>
<path d="M222.419 52.6131C222.419 52.3356 222.643 52.1107 222.92 52.1107C223.196 52.1107 223.421 52.3356 223.421 52.6131V57.9965H222.419V52.6131Z" fill="#900F37"/>
<path d="M110.078 52.6131C110.078 52.3356 110.302 52.1107 110.579 52.1107C110.856 52.1107 111.08 52.3356 111.08 52.6131V57.9965H110.078V52.6131Z" fill="#900F37"/>
<path d="M164.173 54.0487C164.173 53.7712 164.398 53.5462 164.674 53.5462C164.951 53.5462 165.175 53.7712 165.175 54.0487V57.9965H164.173V54.0487Z" fill="#900F37"/>
<path d="M168.753 54.0487C168.753 53.7712 168.977 53.5462 169.254 53.5462C169.53 53.5462 169.755 53.7712 169.755 54.0487V57.9965H168.753V54.0487Z" fill="#900F37"/>
<path d="M208.823 53.4027C208.823 53.0855 209.08 52.8285 209.396 52.8285C209.712 52.8285 209.968 53.0855 209.968 53.4027V57.9965H208.823V53.4027Z" fill="#900F37"/>
<path d="M96.4827 53.5462C96.4827 53.2291 96.739 52.972 97.0552 52.972C97.3713 52.972 97.6276 53.2291 97.6276 53.5462V57.9965H96.4827V53.5462Z" fill="#900F37"/>
<path d="M150.578 53.5462C150.578 53.2291 150.834 52.972 151.15 52.972C151.467 52.972 151.723 53.2291 151.723 53.5462V57.9965H150.578V53.5462Z" fill="#900F37"/>
<path d="M224.565 53.4027C224.565 53.0855 224.822 52.8285 225.138 52.8285C225.454 52.8285 225.71 53.0855 225.71 53.4027V57.9965H224.565V53.4027Z" fill="#900F37"/>
<path d="M112.225 53.5462C112.225 53.2291 112.481 52.972 112.797 52.972C113.113 52.972 113.37 53.2291 113.37 53.5462V57.9965H112.225V53.5462Z" fill="#900F37"/>
<path d="M166.463 53.5462C166.463 53.2291 166.719 52.972 167.036 52.972C167.352 52.972 167.608 53.2291 167.608 53.5462V57.9965H166.463V53.5462Z" fill="#900F37"/>
<path d="M211.113 54.8382C211.113 54.5211 211.369 54.264 211.686 54.264C212.002 54.264 212.258 54.5211 212.258 54.8382V57.9965H211.113V54.8382Z" fill="#900F37"/>
<path d="M98.7725 54.9818C98.7725 54.6647 99.0288 54.4076 99.3449 54.4076C99.6611 54.4076 99.9174 54.6647 99.9174 54.9818V57.9965H98.7725V54.9818Z" fill="#900F37"/>
<path d="M152.868 54.9818C152.868 54.6647 153.124 54.4076 153.44 54.4076C153.756 54.4076 154.013 54.6647 154.013 54.9818V57.9965H152.868V54.9818Z" fill="#900F37"/>
<path d="M226.855 54.8382C226.855 54.5211 227.111 54.264 227.428 54.264C227.744 54.264 228 54.5211 228 54.8382V57.9965H226.855V54.8382Z" fill="#900F37"/>
<path d="M114.514 54.9818C114.514 54.6647 114.771 54.4076 115.087 54.4076C115.403 54.4076 115.659 54.6647 115.659 54.9818V57.9965H114.514V54.9818Z" fill="#900F37"/>
<path d="M213.403 49.742C213.403 49.4645 213.627 49.2396 213.904 49.2396C214.18 49.2396 214.405 49.4645 214.405 49.742V57.9965H213.403V49.742Z" fill="#900F37"/>
<path d="M101.062 56.4891C101.062 56.2116 101.286 55.9867 101.563 55.9867C101.84 55.9867 102.064 56.2116 102.064 56.4891V57.9965H101.062V56.4891Z" fill="#900F37"/>
<path d="M155.157 55.556C155.157 55.2389 155.414 54.9818 155.73 54.9818C156.046 54.9818 156.302 55.2389 156.302 55.556V57.9965H155.157V55.556Z" fill="#900F37"/>
<path d="M215.549 51.68C215.549 51.3629 215.806 51.1058 216.122 51.1058C216.438 51.1058 216.694 51.3629 216.694 51.68V57.9965H215.549V51.68Z" fill="#900F37"/>
<path d="M103.209 51.68C103.209 51.3629 103.465 51.1058 103.781 51.1058C104.097 51.1058 104.354 51.3629 104.354 51.68V57.9965H103.209V51.68Z" fill="#900F37"/>
<path d="M157.447 52.6131C157.447 52.3356 157.671 52.1107 157.948 52.1107C158.225 52.1107 158.449 52.3356 158.449 52.6131V57.9965H157.447V52.6131Z" fill="#900F37"/>
<path d="M217.839 49.8138C217.839 49.4967 218.096 49.2396 218.412 49.2396C218.728 49.2396 218.984 49.4967 218.984 49.8138V57.9965H217.839V49.8138Z" fill="#900F37"/>
<path d="M105.499 49.8138C105.499 49.4967 105.755 49.2396 106.071 49.2396C106.387 49.2396 106.643 49.4967 106.643 49.8138V57.9965H105.499V49.8138Z" fill="#900F37"/>
<path d="M159.737 50.6033C159.737 50.3259 159.961 50.1009 160.238 50.1009C160.514 50.1009 160.739 50.3259 160.739 50.6033V57.9965H159.737V50.6033Z" fill="#900F37"/>
<path d="M181.776 51.8236C181.776 51.5064 182.032 51.2493 182.348 51.2493C182.664 51.2493 182.921 51.5064 182.921 51.8236V57.9965H181.776V51.8236Z" fill="#900F37"/>
<path d="M140.417 54.9818C140.417 54.6647 140.161 54.4076 139.845 54.4076C139.529 54.4076 139.272 54.6647 139.272 54.9818V57.9965H140.417V54.9818Z" fill="#900F37"/>
<path d="M70.4193 87C68.6147 87 66.8517 86.7633 65.1304 86.2898C63.4091 85.8164 62.0348 85.2176 61.0076 84.4935L63.0065 80.5249C64.006 81.1933 65.1998 81.7364 66.588 82.1541C68.0039 82.544 69.392 82.739 70.7524 82.739C73.8619 82.739 75.4166 81.9174 75.4166 80.2743C75.4166 79.4945 75.0141 78.9514 74.2089 78.6451C73.4316 78.3387 72.1684 78.0463 70.4193 77.7678C68.5869 77.4893 67.0877 77.169 65.9216 76.807C64.7833 76.4449 63.7839 75.8183 62.9232 74.9271C62.0903 74.0081 61.6739 72.7409 61.6739 71.1256C61.6739 69.009 62.5484 67.3241 64.2975 66.0709C66.0743 64.7898 68.462 64.1493 71.4604 64.1493C72.9874 64.1493 74.5143 64.3303 76.0413 64.6923C77.5683 65.0265 78.8176 65.486 79.7893 66.0709L77.7904 70.0395C75.9025 68.9255 73.7786 68.3685 71.4187 68.3685C69.8918 68.3685 68.7257 68.6052 67.9206 69.0787C67.1432 69.5243 66.7545 70.123 66.7545 70.875C66.7545 71.7105 67.171 72.3092 68.0039 72.6713C68.8645 73.0055 70.1833 73.3258 71.9601 73.6321C73.737 73.9106 75.1945 74.2309 76.3328 74.5929C77.4711 74.955 78.4428 75.5677 79.248 76.431C80.0809 77.2943 80.4973 78.5197 80.4973 80.1072C80.4973 82.1959 79.595 83.8669 77.7904 85.1201C75.9858 86.3734 73.5287 87 70.4193 87Z" fill="#900F37"/>
<path d="M112.966 75.6791C112.966 76.0411 112.938 76.5563 112.882 77.2247H95.4331C95.7385 78.8679 96.5298 80.1768 97.8069 81.1516C99.1117 82.0984 100.722 82.5719 102.638 82.5719C105.081 82.5719 107.094 81.7642 108.676 80.149L111.466 83.3656C110.467 84.5631 109.204 85.4683 107.677 86.081C106.15 86.6937 104.428 87 102.513 87C100.07 87 97.9179 86.5126 96.0578 85.5379C94.1977 84.5631 92.754 83.2124 91.7267 81.4857C90.7273 79.7312 90.2275 77.7539 90.2275 75.5537C90.2275 73.3815 90.7134 71.432 91.6851 69.7053C92.6846 67.9507 94.0588 66.5861 95.8079 65.6114C97.557 64.6366 99.5282 64.1493 101.721 64.1493C103.887 64.1493 105.817 64.6366 107.51 65.6114C109.231 66.5583 110.564 67.909 111.508 69.6635C112.48 71.3902 112.966 73.3954 112.966 75.6791ZM101.721 68.3267C100.056 68.3267 98.6398 68.828 97.4737 69.8306C96.3354 70.8054 95.6413 72.1143 95.3915 73.7574H108.01C107.788 72.1421 107.108 70.8332 105.969 69.8306C104.831 68.828 103.415 68.3267 101.721 68.3267Z" fill="#900F37"/>
<path d="M135.248 87C132.944 87 130.876 86.5126 129.043 85.5379C127.211 84.5631 125.781 83.2124 124.754 81.4857C123.727 79.7312 123.213 77.7539 123.213 75.5537C123.213 73.3536 123.727 71.3902 124.754 69.6635C125.781 67.9368 127.197 66.5861 129.002 65.6114C130.834 64.6366 132.916 64.1493 135.248 64.1493C137.442 64.1493 139.357 64.5948 140.995 65.486C142.661 66.3772 143.911 67.6583 144.743 69.3293L140.746 71.6687C140.107 70.6383 139.302 69.8724 138.33 69.3711C137.386 68.8419 136.345 68.5774 135.207 68.5774C133.263 68.5774 131.653 69.2179 130.376 70.499C129.099 71.7522 128.46 73.4372 128.46 75.5537C128.46 77.6703 129.085 79.3692 130.334 80.6503C131.611 81.9035 133.236 82.5301 135.207 82.5301C136.345 82.5301 137.386 82.2795 138.33 81.7782C139.302 81.249 140.107 80.4692 140.746 79.4388L144.743 81.7782C143.883 83.4492 142.62 84.7442 140.954 85.6632C139.316 86.5544 137.414 87 135.248 87Z" fill="#900F37"/>
<path d="M169.976 85.4961C169.365 85.9974 168.615 86.3734 167.727 86.624C166.866 86.8747 165.95 87 164.978 87C162.535 87 160.647 86.3595 159.315 85.0784C157.982 83.7973 157.316 81.9313 157.316 79.4806V68.7445H153.651V64.567H157.316V59.4705H162.521V64.567H168.476V68.7445H162.521V79.3552C162.521 80.4414 162.785 81.2769 163.312 81.8617C163.84 82.4187 164.603 82.6972 165.603 82.6972C166.769 82.6972 167.741 82.3909 168.518 81.7782L169.976 85.4961Z" fill="#900F37"/>
<path d="M190.6 87C188.351 87 186.325 86.5126 184.52 85.5379C182.715 84.5631 181.3 83.2124 180.272 81.4857C179.273 79.7312 178.773 77.7539 178.773 75.5537C178.773 73.3536 179.273 71.3902 180.272 69.6635C181.3 67.9368 182.715 66.5861 184.52 65.6114C186.325 64.6366 188.351 64.1493 190.6 64.1493C192.877 64.1493 194.917 64.6366 196.722 65.6114C198.527 66.5861 199.929 67.9368 200.928 69.6635C201.955 71.3902 202.469 73.3536 202.469 75.5537C202.469 77.7539 201.955 79.7312 200.928 81.4857C199.929 83.2124 198.527 84.5631 196.722 85.5379C194.917 86.5126 192.877 87 190.6 87ZM190.6 82.5301C192.516 82.5301 194.098 81.8896 195.348 80.6085C196.597 79.3274 197.222 77.6425 197.222 75.5537C197.222 73.465 196.597 71.7801 195.348 70.499C194.098 69.2179 192.516 68.5774 190.6 68.5774C188.685 68.5774 187.102 69.2179 185.853 70.499C184.631 71.7801 184.02 73.465 184.02 75.5537C184.02 77.6425 184.631 79.3274 185.853 80.6085C187.102 81.8896 188.685 82.5301 190.6 82.5301Z" fill="#900F37"/>
<path d="M219.482 67.6583C220.981 65.3189 223.619 64.1493 227.395 64.1493V69.1204C226.95 69.0369 226.548 68.9951 226.187 68.9951C224.16 68.9951 222.578 69.5939 221.439 70.7914C220.301 71.9611 219.732 73.66 219.732 75.8879V86.7076H214.526V64.3999H219.482V67.6583Z" fill="#900F37"/>
<path d="M34.663 36.0359H12.7244L8.39936 46.222H0L19.7448 2.20787H27.768L47.5755 46.222H39.0508L34.663 36.0359ZM31.9677 29.6224L23.6937 10.3819L15.4824 29.6224H31.9677Z" fill="#0E0E0E"/>
<path d="M106.712 2.20787H125.892C130.573 2.20787 134.731 3.13008 138.366 4.97448C142.002 6.77696 144.822 9.35493 146.828 12.7084C148.834 16.0199 149.837 19.8555 149.837 24.215C149.837 28.5744 148.834 32.4309 146.828 35.7844C144.822 39.0959 142.002 41.6739 138.366 43.5183C134.731 45.3208 130.573 46.222 125.892 46.222H106.712V2.20787ZM125.516 39.3055C128.734 39.3055 131.555 38.6977 133.978 37.4821C136.444 36.2245 138.324 34.464 139.62 32.2004C140.957 29.8949 141.626 27.2331 141.626 24.215C141.626 21.1968 140.957 18.556 139.62 16.2924C138.324 13.9869 136.444 12.2263 133.978 11.0107C131.555 9.75316 128.734 9.12438 125.516 9.12438H114.86V39.3055H125.516Z" fill="#0E0E0E"/>
<path d="M161.005 2.20787H169.154V46.222H161.005V2.20787Z" fill="#0E0E0E"/>
<path d="M204.026 46.8508C199.554 46.8508 195.522 45.8867 191.928 43.9584C188.334 41.9883 185.514 39.2846 183.466 35.8473C181.419 32.368 180.395 28.4906 180.395 24.215C180.395 19.9393 181.419 16.0828 183.466 12.6455C185.514 9.1663 188.334 6.46258 191.928 4.53434C195.522 2.56418 199.554 1.5791 204.026 1.5791C208.497 1.5791 212.53 2.56418 216.123 4.53434C219.717 6.46258 222.538 9.14534 224.585 12.5826C226.633 16.0199 227.657 19.8974 227.657 24.215C227.657 28.5325 226.633 32.41 224.585 35.8473C222.538 39.2846 219.717 41.9883 216.123 43.9584C212.53 45.8867 208.497 46.8508 204.026 46.8508ZM204.026 39.6828C206.951 39.6828 209.584 39.033 211.924 37.7336C214.264 36.3922 216.102 34.5478 217.44 32.2004C218.777 29.811 219.446 27.1492 219.446 24.215C219.446 21.2807 218.777 18.6398 217.44 16.2924C216.102 13.9031 214.264 12.0587 211.924 10.7592C209.584 9.41781 206.951 8.74712 204.026 8.74712C201.101 8.74712 198.468 9.41781 196.128 10.7592C193.788 12.0587 191.949 13.9031 190.612 16.2924C189.275 18.6398 188.606 21.2807 188.606 24.215C188.606 27.1492 189.275 29.811 190.612 32.2004C191.949 34.5478 193.788 36.3922 196.128 37.7336C198.468 39.033 201.101 39.6828 204.026 39.6828Z" fill="#0E0E0E"/>
<path d="M64.7407 0.150066C63.8174 0.37325 63.1166 0.774981 62.3935 1.48917C61.3033 2.58277 60.9028 3.69869 60.9028 5.62923V6.68936H65.2413C69.3797 6.68936 69.6133 6.70052 70.0249 6.91254C70.5255 7.16921 70.9148 7.80528 70.9148 8.36324C70.9148 8.9212 70.5255 9.55727 70.0249 9.81394C69.6133 10.026 69.3797 10.0371 65.2413 10.0371H60.9028V13.3849H65.2413C69.3797 13.3849 69.6133 13.396 70.0249 13.6081C70.5255 13.8647 70.9148 14.5008 70.9148 15.0588C70.9148 15.6167 70.5255 16.2528 70.0249 16.5095C69.6133 16.7215 69.3797 16.7326 65.2413 16.7326H60.9028V20.0804H65.2413C69.3797 20.0804 69.6133 20.0916 70.0249 20.3036C70.5255 20.5602 70.9148 21.1963 70.9148 21.7543C70.9148 22.3122 70.5255 22.9483 70.0249 23.205C69.6133 23.417 69.3797 23.4282 65.2413 23.4282H60.9028V26.7759H65.2413C69.3797 26.7759 69.6133 26.7871 70.0249 26.9991C70.5255 27.2558 70.9148 27.8918 70.9148 28.4498C70.9148 29.0078 70.5255 29.6438 70.0249 29.9005C69.6133 30.1125 69.3797 30.1237 65.2413 30.1237H60.9028V31.1838C60.9028 33.1144 61.3033 34.2191 62.3935 35.3239C63.1277 36.0492 63.9287 36.4956 64.8854 36.6965C65.7086 36.8638 79.4585 36.8638 80.2817 36.6965C81.2384 36.4956 82.0393 36.0492 82.7736 35.3239C83.8638 34.2191 84.2642 33.1144 84.2642 31.1838V30.1237H79.9146C75.6094 30.1237 75.5538 30.1237 75.1199 29.8782C74.6193 29.5992 74.2522 28.9854 74.2522 28.4498C74.2522 27.9142 74.6193 27.3004 75.1199 27.0214C75.5538 26.7759 75.6094 26.7759 79.9146 26.7759H84.2642V23.4282H79.9146C75.6094 23.4282 75.5538 23.4282 75.1199 23.1827C73.9963 22.5466 73.9963 20.962 75.1199 20.3259C75.5538 20.0804 75.6094 20.0804 79.9146 20.0804H84.2642V16.7326H79.9146C75.6094 16.7326 75.5538 16.7326 75.1199 16.4871C73.9963 15.8511 73.9963 14.2665 75.1199 13.6304C75.5538 13.3849 75.6094 13.3849 79.9146 13.3849H84.2642V10.0371H79.9146C75.6094 10.0371 75.5538 10.0371 75.1199 9.79162C73.9963 9.15554 73.9963 7.57094 75.1199 6.93486C75.5538 6.68936 75.6094 6.68936 79.9146 6.68936H84.2642V5.62923C84.2642 3.69869 83.8638 2.59393 82.7736 1.48917C82.0393 0.752662 81.1716 0.283976 80.2483 0.105429C79.3695 -0.0619594 65.4416 -0.0173225 64.7407 0.150066Z" fill="url(#paint0_linear_2318_723)"/>
<path d="M55.1403 6.50615C54.9401 6.60659 54.6619 6.84093 54.5285 7.03063L54.2837 7.37657L54.2837 28.2014C54.2837 34.1716 54.2949 34.4282 54.5174 35.2875C55.3517 38.4232 57.0649 40.8559 59.5901 42.4852C61.5147 43.735 63.2612 44.2595 65.831 44.3488L67.5775 44.4157V54.6487H64.9076C62.438 54.6487 62.1933 54.671 61.7928 54.8719C61.2922 55.1285 60.9028 55.7646 60.9028 56.3226C60.9028 56.8805 61.2922 57.5166 61.7928 57.7733C62.2155 57.9965 62.4269 57.9965 72.5835 57.9965C82.7402 57.9965 82.9516 57.9965 83.3743 57.7733C83.8749 57.5166 84.2643 56.8805 84.2643 56.3226C84.2643 55.7646 83.8749 55.1285 83.3743 54.8719C82.9738 54.671 82.7291 54.6487 80.2594 54.6487H77.5896V44.4157L79.3472 44.3488C81.9615 44.2595 83.6524 43.7462 85.6659 42.4294C88.08 40.8559 89.7709 38.4455 90.6386 35.3433C90.8611 34.551 90.8722 34.1939 90.9167 28.4023C90.9612 21.6286 91.0983 7.106 90.4722 6.60356C90.1144 6.31645 89.7041 6.33876 88.7474 6.31645L87.6127 6.27181L87.5682 27.5542C87.5349 33.3569 87.5126 34.2497 87.3457 34.7965C86.4002 37.9545 83.9973 40.2198 80.9047 40.8559C79.6253 41.1237 65.5417 41.1237 64.2624 40.8559C61.5814 40.298 59.1785 38.3116 58.1884 35.8343C57.5988 34.3501 57.5655 33.9595 57.5655 27.1971L57.5654 6.31645H56.542C55.8189 6.31645 55.3962 6.37224 55.1403 6.50615Z" fill="url(#paint1_linear_2318_723)"/>
<defs>
<linearGradient id="paint0_linear_2318_723" x1="173.005" y1="17.8173" x2="134.135" y2="133.452" gradientUnits="userSpaceOnUse">
<stop stop-color="#900F37"/>
<stop offset="1"/>
</linearGradient>
<linearGradient id="paint1_linear_2318_723" x1="82.0935" y1="50.4045" x2="54.855" y2="19.8358" gradientUnits="userSpaceOnUse">
<stop stop-color="#900F37"/>
<stop offset="1"/>
</linearGradient>
</defs>
</svg>
