<svg width="1920" height="1873" viewBox="0 0 1920 1873" fill="none" xmlns="http://www.w3.org/2000/svg">
<rect x="-446.43" y="127.131" width="520" height="260" rx="6" transform="rotate(-18 -446.43 127.131)" fill="#3D9ED6" fill-opacity="0.07"/>
<rect x="67.1416" y="-39.7383" width="520" height="260" rx="6" transform="rotate(-18 67.1416 -39.7383)" fill="#3D9ED6" fill-opacity="0.07"/>
<rect x="580.712" y="-206.608" width="520" height="260" rx="6" transform="rotate(-18 580.712 -206.608)" fill="#3D9ED6" fill-opacity="0.07"/>
<rect x="-359.904" y="393.427" width="520" height="260" rx="6" transform="rotate(-18 -359.904 393.427)" fill="#3D9ED6" fill-opacity="0.07"/>
<rect x="153.666" y="226.557" width="520" height="260" rx="6" transform="rotate(-18 153.666 226.557)" fill="#3D9ED6" fill-opacity="0.07"/>
<rect x="667.236" y="59.6882" width="520" height="260" rx="6" transform="rotate(-18 667.236 59.6882)" fill="#3D9ED6" fill-opacity="0.07"/>
<rect x="1180.81" y="-107.181" width="520" height="260" rx="6" transform="rotate(-18 1180.81 -107.181)" fill="#3D9ED6" fill-opacity="0.07"/>
<rect x="-273.38" y="659.722" width="520" height="260" rx="6" transform="rotate(-18 -273.38 659.722)" fill="#3D9ED6" fill-opacity="0.07"/>
<rect x="240.19" y="492.853" width="520" height="260" rx="6" transform="rotate(-18 240.19 492.853)" fill="#3D9ED6" fill-opacity="0.07"/>
<rect x="753.761" y="325.984" width="520" height="260" rx="6" transform="rotate(-18 753.761 325.984)" fill="#3D9ED6" fill-opacity="0.07"/>
<rect x="1267.33" y="159.115" width="520" height="260" rx="6" transform="rotate(-18 1267.33 159.115)" fill="#3D9ED6" fill-opacity="0.07"/>
<rect x="1780.9" y="-7.75439" width="520" height="260" rx="6" transform="rotate(-18 1780.9 -7.75439)" fill="#3D9ED6" fill-opacity="0.07"/>
<rect x="-186.855" y="926.018" width="520" height="260" rx="6" transform="rotate(-18 -186.855 926.018)" fill="#3D9ED6" fill-opacity="0.07"/>
<rect x="326.716" y="759.149" width="520" height="260" rx="6" transform="rotate(-18 326.716 759.149)" fill="#3D9ED6" fill-opacity="0.07"/>
<rect x="840.286" y="592.28" width="520" height="260" rx="6" transform="rotate(-18 840.286 592.28)" fill="#3D9ED6" fill-opacity="0.07"/>
<rect x="1353.86" y="425.411" width="520" height="260" rx="6" transform="rotate(-18 1353.86 425.411)" fill="#3D9ED6" fill-opacity="0.07"/>
<rect x="1867.43" y="258.542" width="520" height="260" rx="6" transform="rotate(-18 1867.43 258.542)" fill="#3D9ED6" fill-opacity="0.07"/>
<rect x="-100.33" y="1192.31" width="520" height="260" rx="6" transform="rotate(-18 -100.33 1192.31)" fill="#3D9ED6" fill-opacity="0.07"/>
<rect x="413.24" y="1025.45" width="520" height="260" rx="6" transform="rotate(-18 413.24 1025.45)" fill="#3D9ED6" fill-opacity="0.07"/>
<rect x="926.811" y="858.576" width="520" height="260" rx="6" transform="rotate(-18 926.811 858.576)" fill="#3D9ED6" fill-opacity="0.07"/>
<rect x="1440.38" y="691.707" width="520" height="260" rx="6" transform="rotate(-18 1440.38 691.707)" fill="#3D9ED6" fill-opacity="0.07"/>
<rect x="-527.377" y="1625.48" width="520" height="260" rx="6" transform="rotate(-18 -527.377 1625.48)" fill="#3D9ED6" fill-opacity="0.07"/>
<rect x="-13.8057" y="1458.61" width="520" height="260" rx="6" transform="rotate(-18 -13.8057 1458.61)" fill="#3D9ED6" fill-opacity="0.07"/>
<rect x="499.765" y="1291.74" width="520" height="260" rx="6" transform="rotate(-18 499.765 1291.74)" fill="#3D9ED6" fill-opacity="0.07"/>
<rect x="1013.34" y="1124.87" width="520" height="260" rx="6" transform="rotate(-18 1013.34 1124.87)" fill="#3D9ED6" fill-opacity="0.07"/>
<rect x="1526.91" y="958.002" width="520" height="260" rx="6" transform="rotate(-18 1526.91 958.002)" fill="#3D9ED6" fill-opacity="0.07"/>
</svg>
