<svg width="3591" height="2579" viewBox="0 0 3591 2579" fill="none" xmlns="http://www.w3.org/2000/svg">
<rect y="999.979" width="520" height="260" rx="6" transform="rotate(-18 0 999.979)" fill="#3D9ED6" fill-opacity="0.07"/>
<rect x="513.57" y="833.11" width="520" height="260" rx="6" transform="rotate(-18 513.57 833.11)" fill="#3D9ED6" fill-opacity="0.07"/>
<rect x="1027.14" y="666.241" width="520" height="260" rx="6" transform="rotate(-18 1027.14 666.241)" fill="#3D9ED6" fill-opacity="0.07"/>
<rect x="1540.71" y="499.371" width="520" height="260" rx="6" transform="rotate(-18 1540.71 499.371)" fill="#3D9ED6" fill-opacity="0.07"/>
<rect x="2054.28" y="332.502" width="520" height="260" rx="6" transform="rotate(-18 2054.28 332.502)" fill="#3D9ED6" fill-opacity="0.07"/>
<rect x="2567.85" y="165.633" width="520" height="260" rx="6" transform="rotate(-18 2567.85 165.633)" fill="#3D9ED6" fill-opacity="0.07"/>
<rect x="86.5254" y="1266.27" width="520" height="260" rx="6" transform="rotate(-18 86.5254 1266.27)" fill="#3D9ED6" fill-opacity="0.07"/>
<rect x="600.096" y="1099.41" width="520" height="260" rx="6" transform="rotate(-18 600.096 1099.41)" fill="#3D9ED6" fill-opacity="0.07"/>
<rect x="1113.67" y="932.536" width="520" height="260" rx="6" transform="rotate(-18 1113.67 932.536)" fill="#3D9ED6" fill-opacity="0.07"/>
<rect x="1627.24" y="765.667" width="520" height="260" rx="6" transform="rotate(-18 1627.24 765.667)" fill="#3D9ED6" fill-opacity="0.07"/>
<rect x="2140.81" y="598.798" width="520" height="260" rx="6" transform="rotate(-18 2140.81 598.798)" fill="#3D9ED6" fill-opacity="0.07"/>
<rect x="2654.38" y="431.929" width="520" height="260" rx="6" transform="rotate(-18 2654.38 431.929)" fill="#3D9ED6" fill-opacity="0.07"/>
<rect x="173.049" y="1532.57" width="520" height="260" rx="6" transform="rotate(-18 173.049 1532.57)" fill="#3D9ED6" fill-opacity="0.07"/>
<rect x="686.619" y="1365.7" width="520" height="260" rx="6" transform="rotate(-18 686.619 1365.7)" fill="#3D9ED6" fill-opacity="0.07"/>
<rect x="1200.19" y="1198.83" width="520" height="260" rx="6" transform="rotate(-18 1200.19 1198.83)" fill="#3D9ED6" fill-opacity="0.07"/>
<rect x="1713.76" y="1031.96" width="520" height="260" rx="6" transform="rotate(-18 1713.76 1031.96)" fill="#3D9ED6" fill-opacity="0.07"/>
<rect x="2227.33" y="865.094" width="520" height="260" rx="6" transform="rotate(-18 2227.33 865.094)" fill="#3D9ED6" fill-opacity="0.07"/>
<rect x="2740.9" y="698.225" width="520" height="260" rx="6" transform="rotate(-18 2740.9 698.225)" fill="#3D9ED6" fill-opacity="0.07"/>
<rect x="259.574" y="1798.87" width="520" height="260" rx="6" transform="rotate(-18 259.574 1798.87)" fill="#3D9ED6" fill-opacity="0.07"/>
<rect x="773.145" y="1632" width="520" height="260" rx="6" transform="rotate(-18 773.145 1632)" fill="#3D9ED6" fill-opacity="0.07"/>
<rect x="1286.71" y="1465.13" width="520" height="260" rx="6" transform="rotate(-18 1286.71 1465.13)" fill="#3D9ED6" fill-opacity="0.07"/>
<rect x="1800.29" y="1298.26" width="520" height="260" rx="6" transform="rotate(-18 1800.29 1298.26)" fill="#3D9ED6" fill-opacity="0.07"/>
<rect x="2313.86" y="1131.39" width="520" height="260" rx="6" transform="rotate(-18 2313.86 1131.39)" fill="#3D9ED6" fill-opacity="0.07"/>
<rect x="2827.43" y="964.521" width="520" height="260" rx="6" transform="rotate(-18 2827.43 964.521)" fill="#3D9ED6" fill-opacity="0.07"/>
<rect x="346.1" y="2065.16" width="520" height="260" rx="6" transform="rotate(-18 346.1 2065.16)" fill="#3D9ED6" fill-opacity="0.07"/>
<rect x="859.67" y="1898.29" width="520" height="260" rx="6" transform="rotate(-18 859.67 1898.29)" fill="#3D9ED6" fill-opacity="0.07"/>
<rect x="1373.24" y="1731.42" width="520" height="260" rx="6" transform="rotate(-18 1373.24 1731.42)" fill="#3D9ED6" fill-opacity="0.07"/>
<rect x="1886.81" y="1564.55" width="520" height="260" rx="6" transform="rotate(-18 1886.81 1564.55)" fill="#3D9ED6" fill-opacity="0.07"/>
<rect x="2400.38" y="1397.69" width="520" height="260" rx="6" transform="rotate(-18 2400.38 1397.69)" fill="#3D9ED6" fill-opacity="0.07"/>
<rect x="2913.95" y="1230.82" width="520" height="260" rx="6" transform="rotate(-18 2913.95 1230.82)" fill="#3D9ED6" fill-opacity="0.07"/>
<rect x="432.623" y="2331.46" width="520" height="260" rx="6" transform="rotate(-18 432.623 2331.46)" fill="#3D9ED6" fill-opacity="0.07"/>
<rect x="946.195" y="2164.59" width="520" height="260" rx="6" transform="rotate(-18 946.195 2164.59)" fill="#3D9ED6" fill-opacity="0.07"/>
<rect x="1459.77" y="1997.72" width="520" height="260" rx="6" transform="rotate(-18 1459.77 1997.72)" fill="#3D9ED6" fill-opacity="0.07"/>
<rect x="1973.34" y="1830.85" width="520" height="260" rx="6" transform="rotate(-18 1973.34 1830.85)" fill="#3D9ED6" fill-opacity="0.07"/>
<rect x="2486.91" y="1663.98" width="520" height="260" rx="6" transform="rotate(-18 2486.91 1663.98)" fill="#3D9ED6" fill-opacity="0.07"/>
<rect x="3000.48" y="1497.11" width="520" height="260" rx="6" transform="rotate(-18 3000.48 1497.11)" fill="#3D9ED6" fill-opacity="0.07"/>
</svg>
